M48
INCH,TZ
T1C0.0276
T2C0.0300
T3C0.0315
T4C0.0315
T5C0.0354
T6C0.0374
T7C0.0394
T8C0.0433
T9C0.0630
T10C0.0669
%
G90
G05
T1
X50100Y-50800
X52100Y-50800
X53935Y-36000
X53935Y-38000
X54000Y-33250
X54000Y-35250
X55500Y-51500
X57500Y-51500
X59100Y-42935
X60100Y-41935
X60100Y-43935
X68500Y-36200
X68600Y-38600
X70500Y-36200
X70600Y-38600
T2
X64200Y-42034
X64200Y-48034
X65200Y-42034
X65200Y-48034
X66200Y-42034
X66200Y-48034
X67200Y-42034
X67200Y-48034
X69200Y-49034
X70450Y-49034
T3
X65900Y-51700
X66600Y-37500
X67100Y-51600
X68300Y-51600
X69400Y-51600
X70250Y-50500
X70500Y-34600
X71500Y-44700
X72000Y-36500
X72000Y-40750
T4
X55267Y-41100
X56763Y-41100
T5
X53490Y-52000
X54490Y-52000
T6
X72882Y-47524
X72882Y-48508
X72882Y-49492
X72882Y-50476
T7
X57902Y-52500
X58902Y-52500
X59500Y-33500
X59902Y-52500
X60500Y-33500
X60902Y-52500
X61500Y-33500
X61902Y-52500
X62500Y-33500
X62902Y-52500
X63500Y-33500
X63902Y-52500
X64500Y-33500
X64902Y-52500
X65500Y-33500
X66500Y-33500
X66500Y-52500
X67500Y-52500
X68500Y-33500
X68500Y-52500
X69500Y-33500
X69500Y-52500
X70500Y-33500
X70500Y-52500
X71500Y-33500
X71500Y-52500
X72500Y-33500
X72500Y-52500
X73500Y-33500
X73500Y-52500
X73632Y-40258
X73632Y-41242
X73632Y-44008
X73632Y-44992
T8
X53366Y-46500
X53366Y-47500
X53366Y-48500
X56166Y-35700
X56166Y-36700
X56166Y-37700
T9
X49750Y-44000
X55750Y-44000
T10
X73283Y-35603
X73283Y-37572
T7
G00X50770Y-41033
M15
G01X50770Y-40167
M16
G05
G00X51675Y-38710
M15
G01X52541Y-38710
M16
G05
G00X53250Y-41112
M15
G01X53250Y-40088
M16
G05
T0
M30
