%TF.GenerationSoftware,KiCad,Pcbnew,6.0.11+dfsg-1*%
%TF.CreationDate,2025-02-08T18:08:56+02:00*%
%TF.ProjectId,pet_puller_shield,7065745f-7075-46c6-9c65-725f73686965,rev?*%
%TF.SameCoordinates,Original*%
%TF.FileFunction,Soldermask,Top*%
%TF.FilePolarity,Negative*%
%FSLAX46Y46*%
G04 Gerber Fmt 4.6, Leading zero omitted, Abs format (unit mm)*
G04 Created by KiCad (PCBNEW 6.0.11+dfsg-1) date 2025-02-08 18:08:56*
%MOMM*%
%LPD*%
G01*
G04 APERTURE LIST*
G04 Aperture macros list*
%AMRoundRect*
0 Rectangle with rounded corners*
0 $1 Rounding radius*
0 $2 $3 $4 $5 $6 $7 $8 $9 X,Y pos of 4 corners*
0 Add a 4 corners polygon primitive as box body*
4,1,4,$2,$3,$4,$5,$6,$7,$8,$9,$2,$3,0*
0 Add four circle primitives for the rounded corners*
1,1,$1+$1,$2,$3*
1,1,$1+$1,$4,$5*
1,1,$1+$1,$6,$7*
1,1,$1+$1,$8,$9*
0 Add four rect primitives between the rounded corners*
20,1,$1+$1,$2,$3,$4,$5,0*
20,1,$1+$1,$4,$5,$6,$7,0*
20,1,$1+$1,$6,$7,$8,$9,0*
20,1,$1+$1,$8,$9,$2,$3,0*%
G04 Aperture macros list end*
%ADD10R,1.600000X1.600000*%
%ADD11O,1.600000X1.600000*%
%ADD12RoundRect,0.250001X-1.099999X1.099999X-1.099999X-1.099999X1.099999X-1.099999X1.099999X1.099999X0*%
%ADD13C,2.700000*%
%ADD14C,1.400000*%
%ADD15O,1.400000X1.400000*%
%ADD16O,3.500000X3.500000*%
%ADD17R,2.000000X1.905000*%
%ADD18O,2.000000X1.905000*%
%ADD19R,1.800000X1.800000*%
%ADD20C,1.800000*%
%ADD21RoundRect,0.250000X-0.725000X0.600000X-0.725000X-0.600000X0.725000X-0.600000X0.725000X0.600000X0*%
%ADD22O,1.950000X1.700000*%
%ADD23RoundRect,0.250000X-0.750000X0.600000X-0.750000X-0.600000X0.750000X-0.600000X0.750000X0.600000X0*%
%ADD24O,2.000000X1.700000*%
%ADD25C,1.600000*%
%ADD26R,2.000000X4.600000*%
%ADD27O,2.000000X4.200000*%
%ADD28O,4.200000X2.000000*%
%ADD29C,1.260000*%
%ADD30R,1.524000X2.524000*%
%ADD31C,2.000000*%
G04 APERTURE END LIST*
D10*
%TO.C,A1*%
X151130000Y-85090000D03*
D11*
X153670000Y-85090000D03*
X156210000Y-85090000D03*
X158750000Y-85090000D03*
X161290000Y-85090000D03*
X163830000Y-85090000D03*
X166370000Y-85090000D03*
X168910000Y-85090000D03*
X173990000Y-85090000D03*
X176530000Y-85090000D03*
X179070000Y-85090000D03*
X181610000Y-85090000D03*
X184150000Y-85090000D03*
X186690000Y-85090000D03*
X186690000Y-133350000D03*
X184150000Y-133350000D03*
X181610000Y-133350000D03*
X179070000Y-133350000D03*
X176530000Y-133350000D03*
X173990000Y-133350000D03*
X171450000Y-133350000D03*
X168910000Y-133350000D03*
X164850000Y-133350000D03*
X162310000Y-133350000D03*
X159770000Y-133350000D03*
X157230000Y-133350000D03*
X154690000Y-133350000D03*
X152150000Y-133350000D03*
X149610000Y-133350000D03*
X147070000Y-133350000D03*
%TD*%
D12*
%TO.C,J4*%
X186140000Y-90432500D03*
D13*
X186140000Y-95432500D03*
%TD*%
D14*
%TO.C,R1*%
X174244000Y-98044000D03*
D15*
X179324000Y-98044000D03*
%TD*%
D16*
%TO.C,Q1*%
X159322000Y-93218000D03*
D17*
X142662000Y-95758000D03*
D18*
X142662000Y-93218000D03*
X142662000Y-90678000D03*
%TD*%
D14*
%TO.C,R2*%
X146050000Y-130810000D03*
D15*
X140970000Y-130810000D03*
%TD*%
D19*
%TO.C,D1*%
X135865000Y-132080000D03*
D20*
X138405000Y-132080000D03*
%TD*%
D21*
%TO.C,J5*%
X185120000Y-120710000D03*
D22*
X185120000Y-123210000D03*
X185120000Y-125710000D03*
X185120000Y-128210000D03*
%TD*%
D14*
%TO.C,R3*%
X173990000Y-91948000D03*
D15*
X179070000Y-91948000D03*
%TD*%
D14*
%TO.C,R4*%
X132334000Y-129032000D03*
D15*
X127254000Y-129032000D03*
%TD*%
D23*
%TO.C,J3*%
X187025000Y-102255000D03*
D24*
X187025000Y-104755000D03*
%TD*%
D16*
%TO.C,U1*%
X152210000Y-120650000D03*
D17*
X135550000Y-123190000D03*
D18*
X135550000Y-120650000D03*
X135550000Y-118110000D03*
%TD*%
D23*
%TO.C,J2*%
X187025000Y-111780000D03*
D24*
X187025000Y-114280000D03*
%TD*%
D14*
%TO.C,R6*%
X136995000Y-96520000D03*
D15*
X136995000Y-91440000D03*
%TD*%
D10*
%TO.C,C1*%
X140289094Y-104775000D03*
D25*
X144089094Y-104775000D03*
%TD*%
D26*
%TO.C,J1*%
X135255000Y-104790000D03*
D27*
X128955000Y-104790000D03*
D28*
X132355000Y-99990000D03*
%TD*%
D29*
%TO.C,RV1*%
X152654000Y-106516000D03*
X150114000Y-109056000D03*
X152654000Y-111596000D03*
%TD*%
D30*
%TO.C,U2*%
X178943000Y-124547500D03*
X175768000Y-124547500D03*
D31*
X170688000Y-122007500D03*
X168148000Y-122007500D03*
X165608000Y-122007500D03*
X163068000Y-122007500D03*
X163068000Y-106767500D03*
X165608000Y-106767500D03*
X168148000Y-106767500D03*
X170688000Y-106767500D03*
%TD*%
D14*
%TO.C,R5*%
X137160000Y-89535000D03*
D15*
X137160000Y-84455000D03*
%TD*%
M02*
