%TF.GenerationSoftware,KiCad,Pcbnew,6.0.11+dfsg-1*%
%TF.CreationDate,2025-02-08T18:02:18+02:00*%
%TF.ProjectId,pet_puller_shield,7065745f-7075-46c6-9c65-725f73686965,rev?*%
%TF.SameCoordinates,Original*%
%TF.FileFunction,Legend,Bot*%
%TF.FilePolarity,Positive*%
%FSLAX46Y46*%
G04 Gerber Fmt 4.6, Leading zero omitted, Abs format (unit mm)*
G04 Created by KiCad (PCBNEW 6.0.11+dfsg-1) date 2025-02-08 18:02:18*
%MOMM*%
%LPD*%
G01*
G04 APERTURE LIST*
%ADD10C,0.150000*%
%ADD11C,0.120000*%
G04 APERTURE END LIST*
D10*
%TO.C,J4*%
X180692380Y-92599166D02*
X181406666Y-92599166D01*
X181549523Y-92551547D01*
X181644761Y-92456309D01*
X181692380Y-92313452D01*
X181692380Y-92218214D01*
X181025714Y-93503928D02*
X181692380Y-93503928D01*
X180644761Y-93265833D02*
X181359047Y-93027738D01*
X181359047Y-93646785D01*
%TO.C,R1*%
X176950666Y-100416380D02*
X177284000Y-99940190D01*
X177522095Y-100416380D02*
X177522095Y-99416380D01*
X177141142Y-99416380D01*
X177045904Y-99464000D01*
X176998285Y-99511619D01*
X176950666Y-99606857D01*
X176950666Y-99749714D01*
X176998285Y-99844952D01*
X177045904Y-99892571D01*
X177141142Y-99940190D01*
X177522095Y-99940190D01*
X175998285Y-100416380D02*
X176569714Y-100416380D01*
X176284000Y-100416380D02*
X176284000Y-99416380D01*
X176379238Y-99559238D01*
X176474476Y-99654476D01*
X176569714Y-99702095D01*
%TO.C,Q1*%
X163789619Y-93122761D02*
X163742000Y-93027523D01*
X163646761Y-92932285D01*
X163503904Y-92789428D01*
X163456285Y-92694190D01*
X163456285Y-92598952D01*
X163694380Y-92646571D02*
X163646761Y-92551333D01*
X163551523Y-92456095D01*
X163361047Y-92408476D01*
X163027714Y-92408476D01*
X162837238Y-92456095D01*
X162742000Y-92551333D01*
X162694380Y-92646571D01*
X162694380Y-92837047D01*
X162742000Y-92932285D01*
X162837238Y-93027523D01*
X163027714Y-93075142D01*
X163361047Y-93075142D01*
X163551523Y-93027523D01*
X163646761Y-92932285D01*
X163694380Y-92837047D01*
X163694380Y-92646571D01*
X163694380Y-94027523D02*
X163694380Y-93456095D01*
X163694380Y-93741809D02*
X162694380Y-93741809D01*
X162837238Y-93646571D01*
X162932476Y-93551333D01*
X162980095Y-93456095D01*
%TO.C,R2*%
X143676666Y-129342380D02*
X144010000Y-128866190D01*
X144248095Y-129342380D02*
X144248095Y-128342380D01*
X143867142Y-128342380D01*
X143771904Y-128390000D01*
X143724285Y-128437619D01*
X143676666Y-128532857D01*
X143676666Y-128675714D01*
X143724285Y-128770952D01*
X143771904Y-128818571D01*
X143867142Y-128866190D01*
X144248095Y-128866190D01*
X143295714Y-128437619D02*
X143248095Y-128390000D01*
X143152857Y-128342380D01*
X142914761Y-128342380D01*
X142819523Y-128390000D01*
X142771904Y-128437619D01*
X142724285Y-128532857D01*
X142724285Y-128628095D01*
X142771904Y-128770952D01*
X143343333Y-129342380D01*
X142724285Y-129342380D01*
%TO.C,D1*%
X137873095Y-135492380D02*
X137873095Y-134492380D01*
X137635000Y-134492380D01*
X137492142Y-134540000D01*
X137396904Y-134635238D01*
X137349285Y-134730476D01*
X137301666Y-134920952D01*
X137301666Y-135063809D01*
X137349285Y-135254285D01*
X137396904Y-135349523D01*
X137492142Y-135444761D01*
X137635000Y-135492380D01*
X137873095Y-135492380D01*
X136349285Y-135492380D02*
X136920714Y-135492380D01*
X136635000Y-135492380D02*
X136635000Y-134492380D01*
X136730238Y-134635238D01*
X136825476Y-134730476D01*
X136920714Y-134778095D01*
%TO.C,J5*%
X181772380Y-124126666D02*
X182486666Y-124126666D01*
X182629523Y-124079047D01*
X182724761Y-123983809D01*
X182772380Y-123840952D01*
X182772380Y-123745714D01*
X181772380Y-125079047D02*
X181772380Y-124602857D01*
X182248571Y-124555238D01*
X182200952Y-124602857D01*
X182153333Y-124698095D01*
X182153333Y-124936190D01*
X182200952Y-125031428D01*
X182248571Y-125079047D01*
X182343809Y-125126666D01*
X182581904Y-125126666D01*
X182677142Y-125079047D01*
X182724761Y-125031428D01*
X182772380Y-124936190D01*
X182772380Y-124698095D01*
X182724761Y-124602857D01*
X182677142Y-124555238D01*
%TO.C,R3*%
X176696666Y-94320380D02*
X177030000Y-93844190D01*
X177268095Y-94320380D02*
X177268095Y-93320380D01*
X176887142Y-93320380D01*
X176791904Y-93368000D01*
X176744285Y-93415619D01*
X176696666Y-93510857D01*
X176696666Y-93653714D01*
X176744285Y-93748952D01*
X176791904Y-93796571D01*
X176887142Y-93844190D01*
X177268095Y-93844190D01*
X176363333Y-93320380D02*
X175744285Y-93320380D01*
X176077619Y-93701333D01*
X175934761Y-93701333D01*
X175839523Y-93748952D01*
X175791904Y-93796571D01*
X175744285Y-93891809D01*
X175744285Y-94129904D01*
X175791904Y-94225142D01*
X175839523Y-94272761D01*
X175934761Y-94320380D01*
X176220476Y-94320380D01*
X176315714Y-94272761D01*
X176363333Y-94225142D01*
%TO.C,R4*%
X129960666Y-127564380D02*
X130294000Y-127088190D01*
X130532095Y-127564380D02*
X130532095Y-126564380D01*
X130151142Y-126564380D01*
X130055904Y-126612000D01*
X130008285Y-126659619D01*
X129960666Y-126754857D01*
X129960666Y-126897714D01*
X130008285Y-126992952D01*
X130055904Y-127040571D01*
X130151142Y-127088190D01*
X130532095Y-127088190D01*
X129103523Y-126897714D02*
X129103523Y-127564380D01*
X129341619Y-126516761D02*
X129579714Y-127231047D01*
X128960666Y-127231047D01*
%TO.C,J3*%
X183677380Y-103171666D02*
X184391666Y-103171666D01*
X184534523Y-103124047D01*
X184629761Y-103028809D01*
X184677380Y-102885952D01*
X184677380Y-102790714D01*
X183677380Y-103552619D02*
X183677380Y-104171666D01*
X184058333Y-103838333D01*
X184058333Y-103981190D01*
X184105952Y-104076428D01*
X184153571Y-104124047D01*
X184248809Y-104171666D01*
X184486904Y-104171666D01*
X184582142Y-104124047D01*
X184629761Y-104076428D01*
X184677380Y-103981190D01*
X184677380Y-103695476D01*
X184629761Y-103600238D01*
X184582142Y-103552619D01*
%TO.C,U1*%
X155582380Y-119888095D02*
X156391904Y-119888095D01*
X156487142Y-119935714D01*
X156534761Y-119983333D01*
X156582380Y-120078571D01*
X156582380Y-120269047D01*
X156534761Y-120364285D01*
X156487142Y-120411904D01*
X156391904Y-120459523D01*
X155582380Y-120459523D01*
X156582380Y-121459523D02*
X156582380Y-120888095D01*
X156582380Y-121173809D02*
X155582380Y-121173809D01*
X155725238Y-121078571D01*
X155820476Y-120983333D01*
X155868095Y-120888095D01*
%TO.C,J2*%
X183677380Y-112696666D02*
X184391666Y-112696666D01*
X184534523Y-112649047D01*
X184629761Y-112553809D01*
X184677380Y-112410952D01*
X184677380Y-112315714D01*
X183772619Y-113125238D02*
X183725000Y-113172857D01*
X183677380Y-113268095D01*
X183677380Y-113506190D01*
X183725000Y-113601428D01*
X183772619Y-113649047D01*
X183867857Y-113696666D01*
X183963095Y-113696666D01*
X184105952Y-113649047D01*
X184677380Y-113077619D01*
X184677380Y-113696666D01*
%TO.C,R6*%
X139367380Y-93813333D02*
X138891190Y-93480000D01*
X139367380Y-93241904D02*
X138367380Y-93241904D01*
X138367380Y-93622857D01*
X138415000Y-93718095D01*
X138462619Y-93765714D01*
X138557857Y-93813333D01*
X138700714Y-93813333D01*
X138795952Y-93765714D01*
X138843571Y-93718095D01*
X138891190Y-93622857D01*
X138891190Y-93241904D01*
X138367380Y-94670476D02*
X138367380Y-94480000D01*
X138415000Y-94384761D01*
X138462619Y-94337142D01*
X138605476Y-94241904D01*
X138795952Y-94194285D01*
X139176904Y-94194285D01*
X139272142Y-94241904D01*
X139319761Y-94289523D01*
X139367380Y-94384761D01*
X139367380Y-94575238D01*
X139319761Y-94670476D01*
X139272142Y-94718095D01*
X139176904Y-94765714D01*
X138938809Y-94765714D01*
X138843571Y-94718095D01*
X138795952Y-94670476D01*
X138748333Y-94575238D01*
X138748333Y-94384761D01*
X138795952Y-94289523D01*
X138843571Y-94241904D01*
X138938809Y-94194285D01*
%TO.C,C1*%
X142355760Y-110382142D02*
X142403379Y-110429761D01*
X142546236Y-110477380D01*
X142641474Y-110477380D01*
X142784332Y-110429761D01*
X142879570Y-110334523D01*
X142927189Y-110239285D01*
X142974808Y-110048809D01*
X142974808Y-109905952D01*
X142927189Y-109715476D01*
X142879570Y-109620238D01*
X142784332Y-109525000D01*
X142641474Y-109477380D01*
X142546236Y-109477380D01*
X142403379Y-109525000D01*
X142355760Y-109572619D01*
X141403379Y-110477380D02*
X141974808Y-110477380D01*
X141689094Y-110477380D02*
X141689094Y-109477380D01*
X141784332Y-109620238D01*
X141879570Y-109715476D01*
X141974808Y-109763095D01*
%TO.C,J1*%
X137207380Y-99996666D02*
X137921666Y-99996666D01*
X138064523Y-99949047D01*
X138159761Y-99853809D01*
X138207380Y-99710952D01*
X138207380Y-99615714D01*
X138207380Y-100996666D02*
X138207380Y-100425238D01*
X138207380Y-100710952D02*
X137207380Y-100710952D01*
X137350238Y-100615714D01*
X137445476Y-100520476D01*
X137493095Y-100425238D01*
%TO.C,RV1*%
X153249238Y-114568380D02*
X153582571Y-114092190D01*
X153820666Y-114568380D02*
X153820666Y-113568380D01*
X153439714Y-113568380D01*
X153344476Y-113616000D01*
X153296857Y-113663619D01*
X153249238Y-113758857D01*
X153249238Y-113901714D01*
X153296857Y-113996952D01*
X153344476Y-114044571D01*
X153439714Y-114092190D01*
X153820666Y-114092190D01*
X152963523Y-113568380D02*
X152630190Y-114568380D01*
X152296857Y-113568380D01*
X151439714Y-114568380D02*
X152011142Y-114568380D01*
X151725428Y-114568380D02*
X151725428Y-113568380D01*
X151820666Y-113711238D01*
X151915904Y-113806476D01*
X152011142Y-113854095D01*
%TO.C,U2*%
X172084904Y-98599880D02*
X172084904Y-99409404D01*
X172037285Y-99504642D01*
X171989666Y-99552261D01*
X171894428Y-99599880D01*
X171703952Y-99599880D01*
X171608714Y-99552261D01*
X171561095Y-99504642D01*
X171513476Y-99409404D01*
X171513476Y-98599880D01*
X171084904Y-98695119D02*
X171037285Y-98647500D01*
X170942047Y-98599880D01*
X170703952Y-98599880D01*
X170608714Y-98647500D01*
X170561095Y-98695119D01*
X170513476Y-98790357D01*
X170513476Y-98885595D01*
X170561095Y-99028452D01*
X171132523Y-99599880D01*
X170513476Y-99599880D01*
%TO.C,R5*%
X139532380Y-86828333D02*
X139056190Y-86495000D01*
X139532380Y-86256904D02*
X138532380Y-86256904D01*
X138532380Y-86637857D01*
X138580000Y-86733095D01*
X138627619Y-86780714D01*
X138722857Y-86828333D01*
X138865714Y-86828333D01*
X138960952Y-86780714D01*
X139008571Y-86733095D01*
X139056190Y-86637857D01*
X139056190Y-86256904D01*
X138532380Y-87733095D02*
X138532380Y-87256904D01*
X139008571Y-87209285D01*
X138960952Y-87256904D01*
X138913333Y-87352142D01*
X138913333Y-87590238D01*
X138960952Y-87685476D01*
X139008571Y-87733095D01*
X139103809Y-87780714D01*
X139341904Y-87780714D01*
X139437142Y-87733095D01*
X139484761Y-87685476D01*
X139532380Y-87590238D01*
X139532380Y-87352142D01*
X139484761Y-87256904D01*
X139437142Y-87209285D01*
D11*
%TO.C,J4*%
X185840000Y-87022500D02*
X186140000Y-87622500D01*
X186140000Y-87622500D02*
X186440000Y-87022500D01*
X191050000Y-98042500D02*
X182330000Y-98042500D01*
X186440000Y-87022500D02*
X185840000Y-87022500D01*
X182330000Y-87822500D02*
X191050000Y-87822500D01*
X191050000Y-87822500D02*
X191050000Y-98042500D01*
X182330000Y-98042500D02*
X182330000Y-87822500D01*
%TO.C,R1*%
X174864000Y-97124000D02*
X178704000Y-97124000D01*
X174864000Y-98964000D02*
X178704000Y-98964000D01*
%TO.C,Q1*%
X162242000Y-98338000D02*
X162242000Y-88098000D01*
X162242000Y-98338000D02*
X146352000Y-98338000D01*
X162242000Y-88098000D02*
X146352000Y-88098000D01*
X146352000Y-90678000D02*
X143812000Y-90678000D01*
X146352000Y-93218000D02*
X143812000Y-93218000D01*
X146352000Y-98338000D02*
X146352000Y-88098000D01*
X146352000Y-95758000D02*
X143812000Y-95758000D01*
%TO.C,R2*%
X145430000Y-131730000D02*
X141590000Y-131730000D01*
X145430000Y-129890000D02*
X141590000Y-129890000D01*
%TO.C,D1*%
X135575000Y-131000000D02*
X135575000Y-130844000D01*
X135575000Y-133316000D02*
X135575000Y-133160000D01*
X135575000Y-133315516D02*
G75*
G03*
X138807335Y-133158608I1560000J1235516D01*
G01*
X138176130Y-131000163D02*
G75*
G03*
X136094039Y-131000000I-1041130J-1079837D01*
G01*
X136094039Y-133160000D02*
G75*
G03*
X138176130Y-133159837I1040961J1080000D01*
G01*
X138807335Y-131001392D02*
G75*
G03*
X135575000Y-130844484I-1672335J-1078608D01*
G01*
%TO.C,J5*%
X185930000Y-129820000D02*
X187430000Y-129820000D01*
X183410000Y-130820000D02*
X183410000Y-118100000D01*
X185930000Y-130820000D02*
X185930000Y-129820000D01*
X185120000Y-118100000D02*
X185120000Y-118600000D01*
X185930000Y-119100000D02*
X187430000Y-119100000D01*
X183910000Y-118600000D02*
X183910000Y-130320000D01*
X187430000Y-130820000D02*
X183410000Y-130820000D01*
X183410000Y-118100000D02*
X187430000Y-118100000D01*
X185230000Y-117800000D02*
X187730000Y-117800000D01*
X187430000Y-118100000D02*
X187430000Y-130820000D01*
X183910000Y-130320000D02*
X185120000Y-130320000D01*
X185930000Y-118100000D02*
X185930000Y-119100000D01*
X185120000Y-118600000D02*
X183910000Y-118600000D01*
X187730000Y-117800000D02*
X187730000Y-120300000D01*
X185120000Y-130320000D02*
X185120000Y-130820000D01*
%TO.C,R3*%
X174610000Y-92868000D02*
X178450000Y-92868000D01*
X174610000Y-91028000D02*
X178450000Y-91028000D01*
%TO.C,R4*%
X131714000Y-128112000D02*
X127874000Y-128112000D01*
X131714000Y-129952000D02*
X127874000Y-129952000D01*
%TO.C,J3*%
X187835000Y-106365000D02*
X189335000Y-106365000D01*
X189335000Y-99645000D02*
X189335000Y-107365000D01*
X189335000Y-107365000D02*
X185315000Y-107365000D01*
X187135000Y-99345000D02*
X189635000Y-99345000D01*
X187835000Y-99645000D02*
X187835000Y-100645000D01*
X187025000Y-100145000D02*
X185815000Y-100145000D01*
X185815000Y-100145000D02*
X185815000Y-106865000D01*
X187835000Y-107365000D02*
X187835000Y-106365000D01*
X187835000Y-100645000D02*
X189335000Y-100645000D01*
X187025000Y-106865000D02*
X187025000Y-107365000D01*
X187025000Y-99645000D02*
X187025000Y-100145000D01*
X189635000Y-99345000D02*
X189635000Y-101845000D01*
X185315000Y-99645000D02*
X189335000Y-99645000D01*
X185815000Y-106865000D02*
X187025000Y-106865000D01*
X185315000Y-107365000D02*
X185315000Y-99645000D01*
%TO.C,U1*%
X155130000Y-125770000D02*
X155130000Y-115530000D01*
X139240000Y-125770000D02*
X139240000Y-115530000D01*
X139240000Y-123190000D02*
X136700000Y-123190000D01*
X139240000Y-120650000D02*
X136700000Y-120650000D01*
X139240000Y-118110000D02*
X136700000Y-118110000D01*
X155130000Y-125770000D02*
X139240000Y-125770000D01*
X155130000Y-115530000D02*
X139240000Y-115530000D01*
%TO.C,J2*%
X189335000Y-109170000D02*
X189335000Y-116890000D01*
X189635000Y-108870000D02*
X189635000Y-111370000D01*
X187835000Y-116890000D02*
X187835000Y-115890000D01*
X189335000Y-116890000D02*
X185315000Y-116890000D01*
X185315000Y-109170000D02*
X189335000Y-109170000D01*
X187835000Y-115890000D02*
X189335000Y-115890000D01*
X187135000Y-108870000D02*
X189635000Y-108870000D01*
X185315000Y-116890000D02*
X185315000Y-109170000D01*
X187835000Y-110170000D02*
X189335000Y-110170000D01*
X187025000Y-109170000D02*
X187025000Y-109670000D01*
X187835000Y-109170000D02*
X187835000Y-110170000D01*
X185815000Y-116390000D02*
X187025000Y-116390000D01*
X185815000Y-109670000D02*
X185815000Y-116390000D01*
X187025000Y-109670000D02*
X185815000Y-109670000D01*
X187025000Y-116390000D02*
X187025000Y-116890000D01*
%TO.C,R6*%
X136075000Y-95900000D02*
X136075000Y-92060000D01*
X137915000Y-95900000D02*
X137915000Y-92060000D01*
%TO.C,C1*%
X144150094Y-103735000D02*
X144150094Y-101191000D01*
X143390094Y-103735000D02*
X143390094Y-100873000D01*
X145950094Y-106420000D02*
X145950094Y-103130000D01*
X144390094Y-108219000D02*
X144390094Y-105815000D01*
X143190094Y-108732000D02*
X143190094Y-105815000D01*
X144030094Y-108422000D02*
X144030094Y-105815000D01*
X143390094Y-108677000D02*
X143390094Y-105815000D01*
X144390094Y-103735000D02*
X144390094Y-101331000D01*
X138179396Y-107490000D02*
X138179396Y-106690000D01*
X142389094Y-108851000D02*
X142389094Y-100699000D01*
X144310094Y-108268000D02*
X144310094Y-105815000D01*
X144070094Y-103735000D02*
X144070094Y-101148000D01*
X144710094Y-103735000D02*
X144710094Y-101555000D01*
X143950094Y-108461000D02*
X143950094Y-105815000D01*
X144950094Y-107794000D02*
X144950094Y-105815000D01*
X144510094Y-103735000D02*
X144510094Y-101410000D01*
X142589094Y-108836000D02*
X142589094Y-100714000D01*
X143790094Y-103735000D02*
X143790094Y-101018000D01*
X145230094Y-107516000D02*
X145230094Y-102034000D01*
X142910094Y-108792000D02*
X142910094Y-100758000D01*
X145590094Y-107062000D02*
X145590094Y-102488000D01*
X143070094Y-108760000D02*
X143070094Y-105815000D01*
X145630094Y-107003000D02*
X145630094Y-102547000D01*
X145390094Y-107331000D02*
X145390094Y-102219000D01*
X144910094Y-103735000D02*
X144910094Y-101720000D01*
X143750094Y-103735000D02*
X143750094Y-101001000D01*
X144470094Y-103735000D02*
X144470094Y-101383000D01*
X144990094Y-103735000D02*
X144990094Y-101792000D01*
X144590094Y-108084000D02*
X144590094Y-105815000D01*
X145150094Y-107601000D02*
X145150094Y-101949000D01*
X143150094Y-103735000D02*
X143150094Y-100808000D01*
X146030094Y-106228000D02*
X146030094Y-103322000D01*
X143710094Y-103735000D02*
X143710094Y-100985000D01*
X143910094Y-108479000D02*
X143910094Y-105815000D01*
X143430094Y-108664000D02*
X143430094Y-105815000D01*
X142469094Y-108846000D02*
X142469094Y-100704000D01*
X145790094Y-106739000D02*
X145790094Y-102811000D01*
X143590094Y-108610000D02*
X143590094Y-105815000D01*
X144510094Y-108140000D02*
X144510094Y-105815000D01*
X143030094Y-108769000D02*
X143030094Y-100781000D01*
X143230094Y-108722000D02*
X143230094Y-105815000D01*
X144910094Y-107830000D02*
X144910094Y-105815000D01*
X144430094Y-108193000D02*
X144430094Y-105815000D01*
X144110094Y-108381000D02*
X144110094Y-105815000D01*
X145430094Y-107280000D02*
X145430094Y-102270000D01*
X145750094Y-106809000D02*
X145750094Y-102741000D01*
X142269094Y-108855000D02*
X142269094Y-100695000D01*
X143830094Y-103735000D02*
X143830094Y-101035000D01*
X143150094Y-108742000D02*
X143150094Y-105815000D01*
X143350094Y-103735000D02*
X143350094Y-100861000D01*
X145110094Y-103735000D02*
X145110094Y-101908000D01*
X145830094Y-106665000D02*
X145830094Y-102885000D01*
X145110094Y-107642000D02*
X145110094Y-105815000D01*
X144110094Y-103735000D02*
X144110094Y-101169000D01*
X142950094Y-108785000D02*
X142950094Y-100765000D01*
X144470094Y-108167000D02*
X144470094Y-105815000D01*
X145470094Y-107229000D02*
X145470094Y-102321000D01*
X144030094Y-103735000D02*
X144030094Y-101128000D01*
X143750094Y-108549000D02*
X143750094Y-105815000D01*
X142349094Y-108852000D02*
X142349094Y-100698000D01*
X143190094Y-103735000D02*
X143190094Y-100818000D01*
X143630094Y-103735000D02*
X143630094Y-100954000D01*
X146190094Y-105723000D02*
X146190094Y-103827000D01*
X144350094Y-108244000D02*
X144350094Y-105815000D01*
X144070094Y-108402000D02*
X144070094Y-105815000D01*
X142789094Y-108812000D02*
X142789094Y-100738000D01*
X145670094Y-106941000D02*
X145670094Y-102609000D01*
X143630094Y-108596000D02*
X143630094Y-105815000D01*
X143910094Y-103735000D02*
X143910094Y-101071000D01*
X143470094Y-108652000D02*
X143470094Y-105815000D01*
X144630094Y-108055000D02*
X144630094Y-105815000D01*
X143510094Y-108638000D02*
X143510094Y-105815000D01*
X145910094Y-106506000D02*
X145910094Y-103044000D01*
X137779396Y-107090000D02*
X138579396Y-107090000D01*
X143070094Y-103735000D02*
X143070094Y-100790000D01*
X144230094Y-108315000D02*
X144230094Y-105815000D01*
X146150094Y-105873000D02*
X146150094Y-103677000D01*
X144150094Y-108359000D02*
X144150094Y-105815000D01*
X145990094Y-106327000D02*
X145990094Y-103223000D01*
X143990094Y-103735000D02*
X143990094Y-101109000D01*
X143870094Y-103735000D02*
X143870094Y-101053000D01*
X144830094Y-103735000D02*
X144830094Y-101651000D01*
X143550094Y-103735000D02*
X143550094Y-100925000D01*
X143990094Y-108441000D02*
X143990094Y-105815000D01*
X144870094Y-107865000D02*
X144870094Y-105815000D01*
X142429094Y-108849000D02*
X142429094Y-100701000D01*
X143350094Y-108689000D02*
X143350094Y-105815000D01*
X143310094Y-108700000D02*
X143310094Y-105815000D01*
X142629094Y-108832000D02*
X142629094Y-100718000D01*
X144630094Y-103735000D02*
X144630094Y-101495000D01*
X145350094Y-107379000D02*
X145350094Y-102171000D01*
X143510094Y-103735000D02*
X143510094Y-100912000D01*
X142990094Y-108777000D02*
X142990094Y-100773000D01*
X143830094Y-108515000D02*
X143830094Y-105815000D01*
X143710094Y-108565000D02*
X143710094Y-105815000D01*
X144350094Y-103735000D02*
X144350094Y-101306000D01*
X144990094Y-107758000D02*
X144990094Y-105815000D01*
X146230094Y-105543000D02*
X146230094Y-104007000D01*
X143110094Y-103735000D02*
X143110094Y-100799000D01*
X144550094Y-103735000D02*
X144550094Y-101437000D01*
X144310094Y-103735000D02*
X144310094Y-101282000D01*
X145190094Y-107559000D02*
X145190094Y-101991000D01*
X142229094Y-108855000D02*
X142229094Y-100695000D01*
X145870094Y-106588000D02*
X145870094Y-102962000D01*
X144790094Y-107931000D02*
X144790094Y-105815000D01*
X145710094Y-106877000D02*
X145710094Y-102673000D01*
X143270094Y-108711000D02*
X143270094Y-105815000D01*
X143110094Y-108751000D02*
X143110094Y-105815000D01*
X145030094Y-107720000D02*
X145030094Y-105815000D01*
X143670094Y-108580000D02*
X143670094Y-105815000D01*
X144550094Y-108113000D02*
X144550094Y-105815000D01*
X144790094Y-103735000D02*
X144790094Y-101619000D01*
X143470094Y-103735000D02*
X143470094Y-100898000D01*
X144830094Y-107899000D02*
X144830094Y-105815000D01*
X144870094Y-103735000D02*
X144870094Y-101685000D01*
X146110094Y-106004000D02*
X146110094Y-103546000D01*
X142309094Y-108854000D02*
X142309094Y-100696000D01*
X146270094Y-105308000D02*
X146270094Y-104242000D01*
X142189094Y-108855000D02*
X142189094Y-100695000D01*
X143670094Y-103735000D02*
X143670094Y-100970000D01*
X143430094Y-103735000D02*
X143430094Y-100886000D01*
X144670094Y-108025000D02*
X144670094Y-105815000D01*
X144190094Y-103735000D02*
X144190094Y-101213000D01*
X145510094Y-107175000D02*
X145510094Y-102375000D01*
X142709094Y-108823000D02*
X142709094Y-100727000D01*
X143870094Y-108497000D02*
X143870094Y-105815000D01*
X144270094Y-103735000D02*
X144270094Y-101258000D01*
X144950094Y-103735000D02*
X144950094Y-101756000D01*
X143790094Y-108532000D02*
X143790094Y-105815000D01*
X142749094Y-108817000D02*
X142749094Y-100733000D01*
X143590094Y-103735000D02*
X143590094Y-100940000D01*
X143270094Y-103735000D02*
X143270094Y-100839000D01*
X142509094Y-108843000D02*
X142509094Y-100707000D01*
X142549094Y-108840000D02*
X142549094Y-100710000D01*
X142669094Y-108827000D02*
X142669094Y-100723000D01*
X145070094Y-107682000D02*
X145070094Y-105815000D01*
X144750094Y-103735000D02*
X144750094Y-101586000D01*
X144190094Y-108337000D02*
X144190094Y-105815000D01*
X143230094Y-103735000D02*
X143230094Y-100828000D01*
X144270094Y-108292000D02*
X144270094Y-105815000D01*
X144230094Y-103735000D02*
X144230094Y-101235000D01*
X144670094Y-103735000D02*
X144670094Y-101525000D01*
X144710094Y-107995000D02*
X144710094Y-105815000D01*
X143950094Y-103735000D02*
X143950094Y-101089000D01*
X144750094Y-107964000D02*
X144750094Y-105815000D01*
X142869094Y-108799000D02*
X142869094Y-100751000D01*
X142829094Y-108805000D02*
X142829094Y-100745000D01*
X143550094Y-108625000D02*
X143550094Y-105815000D01*
X145270094Y-107472000D02*
X145270094Y-102078000D01*
X146070094Y-106121000D02*
X146070094Y-103429000D01*
X144430094Y-103735000D02*
X144430094Y-101357000D01*
X144590094Y-103735000D02*
X144590094Y-101466000D01*
X145550094Y-107120000D02*
X145550094Y-102430000D01*
X145030094Y-103735000D02*
X145030094Y-101830000D01*
X145070094Y-103735000D02*
X145070094Y-101868000D01*
X145310094Y-107426000D02*
X145310094Y-102124000D01*
X143310094Y-103735000D02*
X143310094Y-100850000D01*
X146309094Y-104775000D02*
G75*
G03*
X146309094Y-104775000I-4120000J0D01*
G01*
%TO.C,J1*%
X121455000Y-100190000D02*
X121455000Y-109390000D01*
X130055000Y-100190000D02*
X121455000Y-100190000D01*
X135955000Y-109390000D02*
X135955000Y-107390000D01*
X136255000Y-107990000D02*
X136255000Y-109690000D01*
X121455000Y-109390000D02*
X135955000Y-109390000D01*
X136255000Y-109690000D02*
X134955000Y-109690000D01*
X135955000Y-102190000D02*
X135955000Y-100190000D01*
X135955000Y-100190000D02*
X134655000Y-100190000D01*
%TO.C,RV1*%
X156584000Y-109056000D02*
G75*
G03*
X156584000Y-109056000I-3930000J0D01*
G01*
D10*
%TO.C,U2*%
X180848000Y-102322500D02*
X160528000Y-102322500D01*
X160528000Y-102322500D02*
X160528000Y-126452500D01*
X160528000Y-126452500D02*
X180848000Y-126452500D01*
X180848000Y-126452500D02*
X180848000Y-102322500D01*
D11*
%TO.C,R5*%
X136240000Y-88915000D02*
X136240000Y-85075000D01*
X138080000Y-88915000D02*
X138080000Y-85075000D01*
%TD*%
M02*
