%TF.GenerationSoftware,KiCad,Pcbnew,6.0.11+dfsg-1*%
%TF.CreationDate,2025-02-12T22:09:05+02:00*%
%TF.ProjectId,pet_puller_shield,7065745f-7075-46c6-9c65-725f73686965,rev?*%
%TF.SameCoordinates,Original*%
%TF.FileFunction,Legend,Bot*%
%TF.FilePolarity,Positive*%
%FSLAX46Y46*%
G04 Gerber Fmt 4.6, Leading zero omitted, Abs format (unit mm)*
G04 Created by KiCad (PCBNEW 6.0.11+dfsg-1) date 2025-02-12 22:09:05*
%MOMM*%
%LPD*%
G01*
G04 APERTURE LIST*
%ADD10C,0.150000*%
%ADD11C,0.120000*%
G04 APERTURE END LIST*
D10*
%TO.C,J6*%
X124793333Y-132802380D02*
X124793333Y-133516666D01*
X124840952Y-133659523D01*
X124936190Y-133754761D01*
X125079047Y-133802380D01*
X125174285Y-133802380D01*
X123888571Y-132802380D02*
X124079047Y-132802380D01*
X124174285Y-132850000D01*
X124221904Y-132897619D01*
X124317142Y-133040476D01*
X124364761Y-133230952D01*
X124364761Y-133611904D01*
X124317142Y-133707142D01*
X124269523Y-133754761D01*
X124174285Y-133802380D01*
X123983809Y-133802380D01*
X123888571Y-133754761D01*
X123840952Y-133707142D01*
X123793333Y-133611904D01*
X123793333Y-133373809D01*
X123840952Y-133278571D01*
X123888571Y-133230952D01*
X123983809Y-133183333D01*
X124174285Y-133183333D01*
X124269523Y-133230952D01*
X124317142Y-133278571D01*
X124364761Y-133373809D01*
%TO.C,J4*%
X180692380Y-92599166D02*
X181406666Y-92599166D01*
X181549523Y-92551547D01*
X181644761Y-92456309D01*
X181692380Y-92313452D01*
X181692380Y-92218214D01*
X181025714Y-93503928D02*
X181692380Y-93503928D01*
X180644761Y-93265833D02*
X181359047Y-93027738D01*
X181359047Y-93646785D01*
%TO.C,R1*%
X176950666Y-100416380D02*
X177284000Y-99940190D01*
X177522095Y-100416380D02*
X177522095Y-99416380D01*
X177141142Y-99416380D01*
X177045904Y-99464000D01*
X176998285Y-99511619D01*
X176950666Y-99606857D01*
X176950666Y-99749714D01*
X176998285Y-99844952D01*
X177045904Y-99892571D01*
X177141142Y-99940190D01*
X177522095Y-99940190D01*
X175998285Y-100416380D02*
X176569714Y-100416380D01*
X176284000Y-100416380D02*
X176284000Y-99416380D01*
X176379238Y-99559238D01*
X176474476Y-99654476D01*
X176569714Y-99702095D01*
%TO.C,Q1*%
X163789619Y-93122761D02*
X163742000Y-93027523D01*
X163646761Y-92932285D01*
X163503904Y-92789428D01*
X163456285Y-92694190D01*
X163456285Y-92598952D01*
X163694380Y-92646571D02*
X163646761Y-92551333D01*
X163551523Y-92456095D01*
X163361047Y-92408476D01*
X163027714Y-92408476D01*
X162837238Y-92456095D01*
X162742000Y-92551333D01*
X162694380Y-92646571D01*
X162694380Y-92837047D01*
X162742000Y-92932285D01*
X162837238Y-93027523D01*
X163027714Y-93075142D01*
X163361047Y-93075142D01*
X163551523Y-93027523D01*
X163646761Y-92932285D01*
X163694380Y-92837047D01*
X163694380Y-92646571D01*
X163694380Y-94027523D02*
X163694380Y-93456095D01*
X163694380Y-93741809D02*
X162694380Y-93741809D01*
X162837238Y-93646571D01*
X162932476Y-93551333D01*
X162980095Y-93456095D01*
%TO.C,R2*%
X143676666Y-129342380D02*
X144010000Y-128866190D01*
X144248095Y-129342380D02*
X144248095Y-128342380D01*
X143867142Y-128342380D01*
X143771904Y-128390000D01*
X143724285Y-128437619D01*
X143676666Y-128532857D01*
X143676666Y-128675714D01*
X143724285Y-128770952D01*
X143771904Y-128818571D01*
X143867142Y-128866190D01*
X144248095Y-128866190D01*
X143295714Y-128437619D02*
X143248095Y-128390000D01*
X143152857Y-128342380D01*
X142914761Y-128342380D01*
X142819523Y-128390000D01*
X142771904Y-128437619D01*
X142724285Y-128532857D01*
X142724285Y-128628095D01*
X142771904Y-128770952D01*
X143343333Y-129342380D01*
X142724285Y-129342380D01*
%TO.C,D1*%
X137873095Y-135492380D02*
X137873095Y-134492380D01*
X137635000Y-134492380D01*
X137492142Y-134540000D01*
X137396904Y-134635238D01*
X137349285Y-134730476D01*
X137301666Y-134920952D01*
X137301666Y-135063809D01*
X137349285Y-135254285D01*
X137396904Y-135349523D01*
X137492142Y-135444761D01*
X137635000Y-135492380D01*
X137873095Y-135492380D01*
X136349285Y-135492380D02*
X136920714Y-135492380D01*
X136635000Y-135492380D02*
X136635000Y-134492380D01*
X136730238Y-134635238D01*
X136825476Y-134730476D01*
X136920714Y-134778095D01*
%TO.C,J5*%
X181772380Y-124126666D02*
X182486666Y-124126666D01*
X182629523Y-124079047D01*
X182724761Y-123983809D01*
X182772380Y-123840952D01*
X182772380Y-123745714D01*
X181772380Y-125079047D02*
X181772380Y-124602857D01*
X182248571Y-124555238D01*
X182200952Y-124602857D01*
X182153333Y-124698095D01*
X182153333Y-124936190D01*
X182200952Y-125031428D01*
X182248571Y-125079047D01*
X182343809Y-125126666D01*
X182581904Y-125126666D01*
X182677142Y-125079047D01*
X182724761Y-125031428D01*
X182772380Y-124936190D01*
X182772380Y-124698095D01*
X182724761Y-124602857D01*
X182677142Y-124555238D01*
%TO.C,R3*%
X176696666Y-94320380D02*
X177030000Y-93844190D01*
X177268095Y-94320380D02*
X177268095Y-93320380D01*
X176887142Y-93320380D01*
X176791904Y-93368000D01*
X176744285Y-93415619D01*
X176696666Y-93510857D01*
X176696666Y-93653714D01*
X176744285Y-93748952D01*
X176791904Y-93796571D01*
X176887142Y-93844190D01*
X177268095Y-93844190D01*
X176363333Y-93320380D02*
X175744285Y-93320380D01*
X176077619Y-93701333D01*
X175934761Y-93701333D01*
X175839523Y-93748952D01*
X175791904Y-93796571D01*
X175744285Y-93891809D01*
X175744285Y-94129904D01*
X175791904Y-94225142D01*
X175839523Y-94272761D01*
X175934761Y-94320380D01*
X176220476Y-94320380D01*
X176315714Y-94272761D01*
X176363333Y-94225142D01*
%TO.C,R4*%
X129960666Y-126802380D02*
X130294000Y-126326190D01*
X130532095Y-126802380D02*
X130532095Y-125802380D01*
X130151142Y-125802380D01*
X130055904Y-125850000D01*
X130008285Y-125897619D01*
X129960666Y-125992857D01*
X129960666Y-126135714D01*
X130008285Y-126230952D01*
X130055904Y-126278571D01*
X130151142Y-126326190D01*
X130532095Y-126326190D01*
X129103523Y-126135714D02*
X129103523Y-126802380D01*
X129341619Y-125754761D02*
X129579714Y-126469047D01*
X128960666Y-126469047D01*
%TO.C,J3*%
X183677380Y-103171666D02*
X184391666Y-103171666D01*
X184534523Y-103124047D01*
X184629761Y-103028809D01*
X184677380Y-102885952D01*
X184677380Y-102790714D01*
X183677380Y-103552619D02*
X183677380Y-104171666D01*
X184058333Y-103838333D01*
X184058333Y-103981190D01*
X184105952Y-104076428D01*
X184153571Y-104124047D01*
X184248809Y-104171666D01*
X184486904Y-104171666D01*
X184582142Y-104124047D01*
X184629761Y-104076428D01*
X184677380Y-103981190D01*
X184677380Y-103695476D01*
X184629761Y-103600238D01*
X184582142Y-103552619D01*
%TO.C,D2*%
X132310095Y-112720380D02*
X132310095Y-111720380D01*
X132072000Y-111720380D01*
X131929142Y-111768000D01*
X131833904Y-111863238D01*
X131786285Y-111958476D01*
X131738666Y-112148952D01*
X131738666Y-112291809D01*
X131786285Y-112482285D01*
X131833904Y-112577523D01*
X131929142Y-112672761D01*
X132072000Y-112720380D01*
X132310095Y-112720380D01*
X131357714Y-111815619D02*
X131310095Y-111768000D01*
X131214857Y-111720380D01*
X130976761Y-111720380D01*
X130881523Y-111768000D01*
X130833904Y-111815619D01*
X130786285Y-111910857D01*
X130786285Y-112006095D01*
X130833904Y-112148952D01*
X131405333Y-112720380D01*
X130786285Y-112720380D01*
X144533904Y-110942380D02*
X144533904Y-109942380D01*
X143962476Y-110942380D02*
X144391047Y-110370952D01*
X143962476Y-109942380D02*
X144533904Y-110513809D01*
%TO.C,U1*%
X155582380Y-119888095D02*
X156391904Y-119888095D01*
X156487142Y-119935714D01*
X156534761Y-119983333D01*
X156582380Y-120078571D01*
X156582380Y-120269047D01*
X156534761Y-120364285D01*
X156487142Y-120411904D01*
X156391904Y-120459523D01*
X155582380Y-120459523D01*
X156582380Y-121459523D02*
X156582380Y-120888095D01*
X156582380Y-121173809D02*
X155582380Y-121173809D01*
X155725238Y-121078571D01*
X155820476Y-120983333D01*
X155868095Y-120888095D01*
%TO.C,J2*%
X183677380Y-112696666D02*
X184391666Y-112696666D01*
X184534523Y-112649047D01*
X184629761Y-112553809D01*
X184677380Y-112410952D01*
X184677380Y-112315714D01*
X183772619Y-113125238D02*
X183725000Y-113172857D01*
X183677380Y-113268095D01*
X183677380Y-113506190D01*
X183725000Y-113601428D01*
X183772619Y-113649047D01*
X183867857Y-113696666D01*
X183963095Y-113696666D01*
X184105952Y-113649047D01*
X184677380Y-113077619D01*
X184677380Y-113696666D01*
%TO.C,R6*%
X139367380Y-93813333D02*
X138891190Y-93480000D01*
X139367380Y-93241904D02*
X138367380Y-93241904D01*
X138367380Y-93622857D01*
X138415000Y-93718095D01*
X138462619Y-93765714D01*
X138557857Y-93813333D01*
X138700714Y-93813333D01*
X138795952Y-93765714D01*
X138843571Y-93718095D01*
X138891190Y-93622857D01*
X138891190Y-93241904D01*
X138367380Y-94670476D02*
X138367380Y-94480000D01*
X138415000Y-94384761D01*
X138462619Y-94337142D01*
X138605476Y-94241904D01*
X138795952Y-94194285D01*
X139176904Y-94194285D01*
X139272142Y-94241904D01*
X139319761Y-94289523D01*
X139367380Y-94384761D01*
X139367380Y-94575238D01*
X139319761Y-94670476D01*
X139272142Y-94718095D01*
X139176904Y-94765714D01*
X138938809Y-94765714D01*
X138843571Y-94718095D01*
X138795952Y-94670476D01*
X138748333Y-94575238D01*
X138748333Y-94384761D01*
X138795952Y-94289523D01*
X138843571Y-94241904D01*
X138938809Y-94194285D01*
%TO.C,C1*%
X146216666Y-110339142D02*
X146264285Y-110386761D01*
X146407142Y-110434380D01*
X146502380Y-110434380D01*
X146645238Y-110386761D01*
X146740476Y-110291523D01*
X146788095Y-110196285D01*
X146835714Y-110005809D01*
X146835714Y-109862952D01*
X146788095Y-109672476D01*
X146740476Y-109577238D01*
X146645238Y-109482000D01*
X146502380Y-109434380D01*
X146407142Y-109434380D01*
X146264285Y-109482000D01*
X146216666Y-109529619D01*
X145264285Y-110434380D02*
X145835714Y-110434380D01*
X145550000Y-110434380D02*
X145550000Y-109434380D01*
X145645238Y-109577238D01*
X145740476Y-109672476D01*
X145835714Y-109720095D01*
%TO.C,J1*%
X137207380Y-98330666D02*
X137921666Y-98330666D01*
X138064523Y-98283047D01*
X138159761Y-98187809D01*
X138207380Y-98044952D01*
X138207380Y-97949714D01*
X138207380Y-99330666D02*
X138207380Y-98759238D01*
X138207380Y-99044952D02*
X137207380Y-99044952D01*
X137350238Y-98949714D01*
X137445476Y-98854476D01*
X137493095Y-98759238D01*
%TO.C,RV1*%
X153249238Y-114568380D02*
X153582571Y-114092190D01*
X153820666Y-114568380D02*
X153820666Y-113568380D01*
X153439714Y-113568380D01*
X153344476Y-113616000D01*
X153296857Y-113663619D01*
X153249238Y-113758857D01*
X153249238Y-113901714D01*
X153296857Y-113996952D01*
X153344476Y-114044571D01*
X153439714Y-114092190D01*
X153820666Y-114092190D01*
X152963523Y-113568380D02*
X152630190Y-114568380D01*
X152296857Y-113568380D01*
X151439714Y-114568380D02*
X152011142Y-114568380D01*
X151725428Y-114568380D02*
X151725428Y-113568380D01*
X151820666Y-113711238D01*
X151915904Y-113806476D01*
X152011142Y-113854095D01*
%TO.C,U2*%
X172084904Y-98599880D02*
X172084904Y-99409404D01*
X172037285Y-99504642D01*
X171989666Y-99552261D01*
X171894428Y-99599880D01*
X171703952Y-99599880D01*
X171608714Y-99552261D01*
X171561095Y-99504642D01*
X171513476Y-99409404D01*
X171513476Y-98599880D01*
X171084904Y-98695119D02*
X171037285Y-98647500D01*
X170942047Y-98599880D01*
X170703952Y-98599880D01*
X170608714Y-98647500D01*
X170561095Y-98695119D01*
X170513476Y-98790357D01*
X170513476Y-98885595D01*
X170561095Y-99028452D01*
X171132523Y-99599880D01*
X170513476Y-99599880D01*
%TO.C,R5*%
X139532380Y-86828333D02*
X139056190Y-86495000D01*
X139532380Y-86256904D02*
X138532380Y-86256904D01*
X138532380Y-86637857D01*
X138580000Y-86733095D01*
X138627619Y-86780714D01*
X138722857Y-86828333D01*
X138865714Y-86828333D01*
X138960952Y-86780714D01*
X139008571Y-86733095D01*
X139056190Y-86637857D01*
X139056190Y-86256904D01*
X138532380Y-87733095D02*
X138532380Y-87256904D01*
X139008571Y-87209285D01*
X138960952Y-87256904D01*
X138913333Y-87352142D01*
X138913333Y-87590238D01*
X138960952Y-87685476D01*
X139008571Y-87733095D01*
X139103809Y-87780714D01*
X139341904Y-87780714D01*
X139437142Y-87733095D01*
X139484761Y-87685476D01*
X139532380Y-87590238D01*
X139532380Y-87352142D01*
X139484761Y-87256904D01*
X139437142Y-87209285D01*
D11*
%TO.C,J6*%
X126180000Y-133142000D02*
X126180000Y-134352000D01*
X133400000Y-134852000D02*
X125680000Y-134852000D01*
X126180000Y-134352000D02*
X132900000Y-134352000D01*
X125680000Y-132332000D02*
X126680000Y-132332000D01*
X126680000Y-132332000D02*
X126680000Y-130832000D01*
X132900000Y-134352000D02*
X132900000Y-133142000D01*
X132900000Y-133142000D02*
X133400000Y-133142000D01*
X125680000Y-134852000D02*
X125680000Y-130832000D01*
X125380000Y-130532000D02*
X127880000Y-130532000D01*
X125680000Y-133142000D02*
X126180000Y-133142000D01*
X133400000Y-130832000D02*
X133400000Y-134852000D01*
X125380000Y-133032000D02*
X125380000Y-130532000D01*
X125680000Y-130832000D02*
X133400000Y-130832000D01*
X132400000Y-132332000D02*
X132400000Y-130832000D01*
X133400000Y-132332000D02*
X132400000Y-132332000D01*
%TO.C,J4*%
X185840000Y-87022500D02*
X186140000Y-87622500D01*
X186140000Y-87622500D02*
X186440000Y-87022500D01*
X191050000Y-98042500D02*
X182330000Y-98042500D01*
X186440000Y-87022500D02*
X185840000Y-87022500D01*
X182330000Y-87822500D02*
X191050000Y-87822500D01*
X191050000Y-87822500D02*
X191050000Y-98042500D01*
X182330000Y-98042500D02*
X182330000Y-87822500D01*
%TO.C,R1*%
X174864000Y-97124000D02*
X178704000Y-97124000D01*
X174864000Y-98964000D02*
X178704000Y-98964000D01*
%TO.C,Q1*%
X162242000Y-98338000D02*
X162242000Y-88098000D01*
X162242000Y-98338000D02*
X146352000Y-98338000D01*
X162242000Y-88098000D02*
X146352000Y-88098000D01*
X146352000Y-90678000D02*
X143812000Y-90678000D01*
X146352000Y-93218000D02*
X143812000Y-93218000D01*
X146352000Y-98338000D02*
X146352000Y-88098000D01*
X146352000Y-95758000D02*
X143812000Y-95758000D01*
%TO.C,R2*%
X145430000Y-131730000D02*
X141590000Y-131730000D01*
X145430000Y-129890000D02*
X141590000Y-129890000D01*
%TO.C,D1*%
X135575000Y-131000000D02*
X135575000Y-130844000D01*
X135575000Y-133316000D02*
X135575000Y-133160000D01*
X135575000Y-133315516D02*
G75*
G03*
X138807335Y-133158608I1560000J1235516D01*
G01*
X138176130Y-131000163D02*
G75*
G03*
X136094039Y-131000000I-1041130J-1079837D01*
G01*
X136094039Y-133160000D02*
G75*
G03*
X138176130Y-133159837I1040961J1080000D01*
G01*
X138807335Y-131001392D02*
G75*
G03*
X135575000Y-130844484I-1672335J-1078608D01*
G01*
%TO.C,J5*%
X185930000Y-129820000D02*
X187430000Y-129820000D01*
X183410000Y-130820000D02*
X183410000Y-118100000D01*
X185930000Y-130820000D02*
X185930000Y-129820000D01*
X185120000Y-118100000D02*
X185120000Y-118600000D01*
X185930000Y-119100000D02*
X187430000Y-119100000D01*
X183910000Y-118600000D02*
X183910000Y-130320000D01*
X187430000Y-130820000D02*
X183410000Y-130820000D01*
X183410000Y-118100000D02*
X187430000Y-118100000D01*
X185230000Y-117800000D02*
X187730000Y-117800000D01*
X187430000Y-118100000D02*
X187430000Y-130820000D01*
X183910000Y-130320000D02*
X185120000Y-130320000D01*
X185930000Y-118100000D02*
X185930000Y-119100000D01*
X185120000Y-118600000D02*
X183910000Y-118600000D01*
X187730000Y-117800000D02*
X187730000Y-120300000D01*
X185120000Y-130320000D02*
X185120000Y-130820000D01*
%TO.C,R3*%
X174610000Y-92868000D02*
X178450000Y-92868000D01*
X174610000Y-91028000D02*
X178450000Y-91028000D01*
%TO.C,R4*%
X131714000Y-127350000D02*
X127874000Y-127350000D01*
X131714000Y-129190000D02*
X127874000Y-129190000D01*
%TO.C,J3*%
X187835000Y-106365000D02*
X189335000Y-106365000D01*
X189335000Y-99645000D02*
X189335000Y-107365000D01*
X189335000Y-107365000D02*
X185315000Y-107365000D01*
X187135000Y-99345000D02*
X189635000Y-99345000D01*
X187835000Y-99645000D02*
X187835000Y-100645000D01*
X187025000Y-100145000D02*
X185815000Y-100145000D01*
X185815000Y-100145000D02*
X185815000Y-106865000D01*
X187835000Y-107365000D02*
X187835000Y-106365000D01*
X187835000Y-100645000D02*
X189335000Y-100645000D01*
X187025000Y-106865000D02*
X187025000Y-107365000D01*
X187025000Y-99645000D02*
X187025000Y-100145000D01*
X189635000Y-99345000D02*
X189635000Y-101845000D01*
X185315000Y-99645000D02*
X189335000Y-99645000D01*
X185815000Y-106865000D02*
X187025000Y-106865000D01*
X185315000Y-107365000D02*
X185315000Y-99645000D01*
%TO.C,D2*%
X137310000Y-109040000D02*
X137310000Y-114480000D01*
X137430000Y-109040000D02*
X137430000Y-114480000D01*
X128205000Y-111760000D02*
X129115000Y-111760000D01*
X138855000Y-109040000D02*
X138855000Y-114480000D01*
X138855000Y-114480000D02*
X129115000Y-114480000D01*
X129115000Y-114480000D02*
X129115000Y-109040000D01*
X129115000Y-109040000D02*
X138855000Y-109040000D01*
X139765000Y-111760000D02*
X138855000Y-111760000D01*
X137190000Y-109040000D02*
X137190000Y-114480000D01*
%TO.C,U1*%
X155130000Y-125770000D02*
X155130000Y-115530000D01*
X139240000Y-125770000D02*
X139240000Y-115530000D01*
X139240000Y-123190000D02*
X136700000Y-123190000D01*
X139240000Y-120650000D02*
X136700000Y-120650000D01*
X139240000Y-118110000D02*
X136700000Y-118110000D01*
X155130000Y-125770000D02*
X139240000Y-125770000D01*
X155130000Y-115530000D02*
X139240000Y-115530000D01*
%TO.C,J2*%
X189335000Y-109170000D02*
X189335000Y-116890000D01*
X189635000Y-108870000D02*
X189635000Y-111370000D01*
X187835000Y-116890000D02*
X187835000Y-115890000D01*
X189335000Y-116890000D02*
X185315000Y-116890000D01*
X185315000Y-109170000D02*
X189335000Y-109170000D01*
X187835000Y-115890000D02*
X189335000Y-115890000D01*
X187135000Y-108870000D02*
X189635000Y-108870000D01*
X185315000Y-116890000D02*
X185315000Y-109170000D01*
X187835000Y-110170000D02*
X189335000Y-110170000D01*
X187025000Y-109170000D02*
X187025000Y-109670000D01*
X187835000Y-109170000D02*
X187835000Y-110170000D01*
X185815000Y-116390000D02*
X187025000Y-116390000D01*
X185815000Y-109670000D02*
X185815000Y-116390000D01*
X187025000Y-109670000D02*
X185815000Y-109670000D01*
X187025000Y-116390000D02*
X187025000Y-116890000D01*
%TO.C,R6*%
X136075000Y-95900000D02*
X136075000Y-92060000D01*
X137915000Y-95900000D02*
X137915000Y-92060000D01*
%TO.C,C1*%
X144239047Y-103354000D02*
X144239047Y-100810000D01*
X143479047Y-103354000D02*
X143479047Y-100492000D01*
X146039047Y-106039000D02*
X146039047Y-102749000D01*
X144479047Y-107838000D02*
X144479047Y-105434000D01*
X143279047Y-108351000D02*
X143279047Y-105434000D01*
X144119047Y-108041000D02*
X144119047Y-105434000D01*
X143479047Y-108296000D02*
X143479047Y-105434000D01*
X144479047Y-103354000D02*
X144479047Y-100950000D01*
X138268349Y-107109000D02*
X138268349Y-106309000D01*
X142478047Y-108470000D02*
X142478047Y-100318000D01*
X144399047Y-107887000D02*
X144399047Y-105434000D01*
X144159047Y-103354000D02*
X144159047Y-100767000D01*
X144799047Y-103354000D02*
X144799047Y-101174000D01*
X144039047Y-108080000D02*
X144039047Y-105434000D01*
X145039047Y-107413000D02*
X145039047Y-105434000D01*
X144599047Y-103354000D02*
X144599047Y-101029000D01*
X142678047Y-108455000D02*
X142678047Y-100333000D01*
X143879047Y-103354000D02*
X143879047Y-100637000D01*
X145319047Y-107135000D02*
X145319047Y-101653000D01*
X142999047Y-108411000D02*
X142999047Y-100377000D01*
X145679047Y-106681000D02*
X145679047Y-102107000D01*
X143159047Y-108379000D02*
X143159047Y-105434000D01*
X145719047Y-106622000D02*
X145719047Y-102166000D01*
X145479047Y-106950000D02*
X145479047Y-101838000D01*
X144999047Y-103354000D02*
X144999047Y-101339000D01*
X143839047Y-103354000D02*
X143839047Y-100620000D01*
X144559047Y-103354000D02*
X144559047Y-101002000D01*
X145079047Y-103354000D02*
X145079047Y-101411000D01*
X144679047Y-107703000D02*
X144679047Y-105434000D01*
X145239047Y-107220000D02*
X145239047Y-101568000D01*
X143239047Y-103354000D02*
X143239047Y-100427000D01*
X146119047Y-105847000D02*
X146119047Y-102941000D01*
X143799047Y-103354000D02*
X143799047Y-100604000D01*
X143999047Y-108098000D02*
X143999047Y-105434000D01*
X143519047Y-108283000D02*
X143519047Y-105434000D01*
X142558047Y-108465000D02*
X142558047Y-100323000D01*
X145879047Y-106358000D02*
X145879047Y-102430000D01*
X143679047Y-108229000D02*
X143679047Y-105434000D01*
X144599047Y-107759000D02*
X144599047Y-105434000D01*
X143119047Y-108388000D02*
X143119047Y-100400000D01*
X143319047Y-108341000D02*
X143319047Y-105434000D01*
X144999047Y-107449000D02*
X144999047Y-105434000D01*
X144519047Y-107812000D02*
X144519047Y-105434000D01*
X144199047Y-108000000D02*
X144199047Y-105434000D01*
X145519047Y-106899000D02*
X145519047Y-101889000D01*
X145839047Y-106428000D02*
X145839047Y-102360000D01*
X142358047Y-108474000D02*
X142358047Y-100314000D01*
X143919047Y-103354000D02*
X143919047Y-100654000D01*
X143239047Y-108361000D02*
X143239047Y-105434000D01*
X143439047Y-103354000D02*
X143439047Y-100480000D01*
X145199047Y-103354000D02*
X145199047Y-101527000D01*
X145919047Y-106284000D02*
X145919047Y-102504000D01*
X145199047Y-107261000D02*
X145199047Y-105434000D01*
X144199047Y-103354000D02*
X144199047Y-100788000D01*
X143039047Y-108404000D02*
X143039047Y-100384000D01*
X144559047Y-107786000D02*
X144559047Y-105434000D01*
X145559047Y-106848000D02*
X145559047Y-101940000D01*
X144119047Y-103354000D02*
X144119047Y-100747000D01*
X143839047Y-108168000D02*
X143839047Y-105434000D01*
X142438047Y-108471000D02*
X142438047Y-100317000D01*
X143279047Y-103354000D02*
X143279047Y-100437000D01*
X143719047Y-103354000D02*
X143719047Y-100573000D01*
X146279047Y-105342000D02*
X146279047Y-103446000D01*
X144439047Y-107863000D02*
X144439047Y-105434000D01*
X144159047Y-108021000D02*
X144159047Y-105434000D01*
X142878047Y-108431000D02*
X142878047Y-100357000D01*
X145759047Y-106560000D02*
X145759047Y-102228000D01*
X143719047Y-108215000D02*
X143719047Y-105434000D01*
X143999047Y-103354000D02*
X143999047Y-100690000D01*
X143559047Y-108271000D02*
X143559047Y-105434000D01*
X144719047Y-107674000D02*
X144719047Y-105434000D01*
X143599047Y-108257000D02*
X143599047Y-105434000D01*
X145999047Y-106125000D02*
X145999047Y-102663000D01*
X137868349Y-106709000D02*
X138668349Y-106709000D01*
X143159047Y-103354000D02*
X143159047Y-100409000D01*
X144319047Y-107934000D02*
X144319047Y-105434000D01*
X146239047Y-105492000D02*
X146239047Y-103296000D01*
X144239047Y-107978000D02*
X144239047Y-105434000D01*
X146079047Y-105946000D02*
X146079047Y-102842000D01*
X144079047Y-103354000D02*
X144079047Y-100728000D01*
X143959047Y-103354000D02*
X143959047Y-100672000D01*
X144919047Y-103354000D02*
X144919047Y-101270000D01*
X143639047Y-103354000D02*
X143639047Y-100544000D01*
X144079047Y-108060000D02*
X144079047Y-105434000D01*
X144959047Y-107484000D02*
X144959047Y-105434000D01*
X142518047Y-108468000D02*
X142518047Y-100320000D01*
X143439047Y-108308000D02*
X143439047Y-105434000D01*
X143399047Y-108319000D02*
X143399047Y-105434000D01*
X142718047Y-108451000D02*
X142718047Y-100337000D01*
X144719047Y-103354000D02*
X144719047Y-101114000D01*
X145439047Y-106998000D02*
X145439047Y-101790000D01*
X143599047Y-103354000D02*
X143599047Y-100531000D01*
X143079047Y-108396000D02*
X143079047Y-100392000D01*
X143919047Y-108134000D02*
X143919047Y-105434000D01*
X143799047Y-108184000D02*
X143799047Y-105434000D01*
X144439047Y-103354000D02*
X144439047Y-100925000D01*
X145079047Y-107377000D02*
X145079047Y-105434000D01*
X146319047Y-105162000D02*
X146319047Y-103626000D01*
X143199047Y-103354000D02*
X143199047Y-100418000D01*
X144639047Y-103354000D02*
X144639047Y-101056000D01*
X144399047Y-103354000D02*
X144399047Y-100901000D01*
X145279047Y-107178000D02*
X145279047Y-101610000D01*
X142318047Y-108474000D02*
X142318047Y-100314000D01*
X145959047Y-106207000D02*
X145959047Y-102581000D01*
X144879047Y-107550000D02*
X144879047Y-105434000D01*
X145799047Y-106496000D02*
X145799047Y-102292000D01*
X143359047Y-108330000D02*
X143359047Y-105434000D01*
X143199047Y-108370000D02*
X143199047Y-105434000D01*
X145119047Y-107339000D02*
X145119047Y-105434000D01*
X143759047Y-108199000D02*
X143759047Y-105434000D01*
X144639047Y-107732000D02*
X144639047Y-105434000D01*
X144879047Y-103354000D02*
X144879047Y-101238000D01*
X143559047Y-103354000D02*
X143559047Y-100517000D01*
X144919047Y-107518000D02*
X144919047Y-105434000D01*
X144959047Y-103354000D02*
X144959047Y-101304000D01*
X146199047Y-105623000D02*
X146199047Y-103165000D01*
X142398047Y-108473000D02*
X142398047Y-100315000D01*
X146359047Y-104927000D02*
X146359047Y-103861000D01*
X142278047Y-108474000D02*
X142278047Y-100314000D01*
X143759047Y-103354000D02*
X143759047Y-100589000D01*
X143519047Y-103354000D02*
X143519047Y-100505000D01*
X144759047Y-107644000D02*
X144759047Y-105434000D01*
X144279047Y-103354000D02*
X144279047Y-100832000D01*
X145599047Y-106794000D02*
X145599047Y-101994000D01*
X142798047Y-108442000D02*
X142798047Y-100346000D01*
X143959047Y-108116000D02*
X143959047Y-105434000D01*
X144359047Y-103354000D02*
X144359047Y-100877000D01*
X145039047Y-103354000D02*
X145039047Y-101375000D01*
X143879047Y-108151000D02*
X143879047Y-105434000D01*
X142838047Y-108436000D02*
X142838047Y-100352000D01*
X143679047Y-103354000D02*
X143679047Y-100559000D01*
X143359047Y-103354000D02*
X143359047Y-100458000D01*
X142598047Y-108462000D02*
X142598047Y-100326000D01*
X142638047Y-108459000D02*
X142638047Y-100329000D01*
X142758047Y-108446000D02*
X142758047Y-100342000D01*
X145159047Y-107301000D02*
X145159047Y-105434000D01*
X144839047Y-103354000D02*
X144839047Y-101205000D01*
X144279047Y-107956000D02*
X144279047Y-105434000D01*
X143319047Y-103354000D02*
X143319047Y-100447000D01*
X144359047Y-107911000D02*
X144359047Y-105434000D01*
X144319047Y-103354000D02*
X144319047Y-100854000D01*
X144759047Y-103354000D02*
X144759047Y-101144000D01*
X144799047Y-107614000D02*
X144799047Y-105434000D01*
X144039047Y-103354000D02*
X144039047Y-100708000D01*
X144839047Y-107583000D02*
X144839047Y-105434000D01*
X142958047Y-108418000D02*
X142958047Y-100370000D01*
X142918047Y-108424000D02*
X142918047Y-100364000D01*
X143639047Y-108244000D02*
X143639047Y-105434000D01*
X145359047Y-107091000D02*
X145359047Y-101697000D01*
X146159047Y-105740000D02*
X146159047Y-103048000D01*
X144519047Y-103354000D02*
X144519047Y-100976000D01*
X144679047Y-103354000D02*
X144679047Y-101085000D01*
X145639047Y-106739000D02*
X145639047Y-102049000D01*
X145119047Y-103354000D02*
X145119047Y-101449000D01*
X145159047Y-103354000D02*
X145159047Y-101487000D01*
X145399047Y-107045000D02*
X145399047Y-101743000D01*
X143399047Y-103354000D02*
X143399047Y-100469000D01*
X146398047Y-104394000D02*
G75*
G03*
X146398047Y-104394000I-4120000J0D01*
G01*
%TO.C,J1*%
X121455000Y-98524000D02*
X121455000Y-107724000D01*
X130055000Y-98524000D02*
X121455000Y-98524000D01*
X135955000Y-107724000D02*
X135955000Y-105724000D01*
X136255000Y-106324000D02*
X136255000Y-108024000D01*
X121455000Y-107724000D02*
X135955000Y-107724000D01*
X136255000Y-108024000D02*
X134955000Y-108024000D01*
X135955000Y-100524000D02*
X135955000Y-98524000D01*
X135955000Y-98524000D02*
X134655000Y-98524000D01*
%TO.C,RV1*%
X156584000Y-109056000D02*
G75*
G03*
X156584000Y-109056000I-3930000J0D01*
G01*
D10*
%TO.C,U2*%
X180848000Y-102322500D02*
X160528000Y-102322500D01*
X160528000Y-102322500D02*
X160528000Y-126452500D01*
X160528000Y-126452500D02*
X180848000Y-126452500D01*
X180848000Y-126452500D02*
X180848000Y-102322500D01*
D11*
%TO.C,R5*%
X136240000Y-88915000D02*
X136240000Y-85075000D01*
X138080000Y-88915000D02*
X138080000Y-85075000D01*
%TD*%
M02*
