%TF.GenerationSoftware,KiCad,Pcbnew,6.0.11+dfsg-1*%
%TF.CreationDate,2025-02-11T20:28:41+02:00*%
%TF.ProjectId,pet_puller_shield,7065745f-7075-46c6-9c65-725f73686965,rev?*%
%TF.SameCoordinates,Original*%
%TF.FileFunction,Profile,NP*%
%FSLAX46Y46*%
G04 Gerber Fmt 4.6, Leading zero omitted, Abs format (unit mm)*
G04 Created by KiCad (PCBNEW 6.0.11+dfsg-1) date 2025-02-11 20:28:41*
%MOMM*%
%LPD*%
G01*
G04 APERTURE LIST*
%TA.AperFunction,Profile*%
%ADD10C,0.100000*%
%TD*%
G04 APERTURE END LIST*
D10*
X189484000Y-85090000D02*
X192024000Y-87630000D01*
X120904000Y-108204000D02*
X120904000Y-98044000D01*
X122936000Y-136144000D02*
X122936000Y-126746000D01*
X120904000Y-85344000D02*
X122936000Y-85344000D01*
X122936000Y-114554000D02*
X122936000Y-109982000D01*
X122936000Y-85344000D02*
X122936000Y-82296000D01*
X122936000Y-109220000D02*
X122936000Y-108204000D01*
X122936000Y-94996000D02*
X120904000Y-94996000D01*
X122936000Y-98044000D02*
X122936000Y-94996000D01*
X116586000Y-126746000D02*
X116586000Y-114554000D01*
X120904000Y-94996000D02*
X120904000Y-85344000D01*
X189484000Y-82296000D02*
X189484000Y-85090000D01*
X192024000Y-120396000D02*
X189484000Y-122936000D01*
X122936000Y-126746000D02*
X116586000Y-126746000D01*
X187706000Y-136144000D02*
X122936000Y-136144000D01*
X192024000Y-87630000D02*
X192024000Y-120396000D01*
X122936000Y-82296000D02*
X189484000Y-82296000D01*
X120904000Y-98044000D02*
X122936000Y-98044000D01*
X189484000Y-122936000D02*
X189484000Y-134366000D01*
X189484000Y-134366000D02*
X187706000Y-136144000D01*
X116586000Y-114554000D02*
X122936000Y-114554000D01*
X122936000Y-109982000D02*
X122936000Y-109220000D01*
X122936000Y-108204000D02*
X120904000Y-108204000D01*
M02*
